<svg width="55" height="53" viewBox="0 0 55 53" fill="none" xmlns="http://www.w3.org/2000/svg">
<path d="M22.1948 4.96889C21.3639 4.96232 20.5497 5.19375 19.8556 5.6338C19.1614 6.07385 18.6185 6.70269 18.2958 7.44053C17.9732 8.17837 17.8852 8.99195 18.0431 9.77804C18.201 10.5641 18.5977 11.2873 19.1828 11.8558C19.7679 12.4243 20.5151 12.8125 21.3295 12.9711C22.144 13.1298 22.9889 13.0517 23.7572 12.7468C24.5256 12.442 25.1826 11.924 25.6449 11.2587C26.1073 10.5935 26.3541 9.81082 26.3542 9.01014C26.3542 7.94404 25.9171 6.92112 25.138 6.16419C24.359 5.40725 23.3011 4.97762 22.1948 4.96889ZM10.7364 28.0128C12.9068 28.0124 15.0519 27.5648 17.0281 26.7003C19.0043 25.8357 20.7659 24.5741 22.1948 22.9999L23.4552 29.0066L19.0781 33.0368V48.0314H23.2719V36.018L27.626 32.021L29.7115 40.8543L44.2521 38.0166L43.4385 33.9864L33.2292 35.9849L29.8719 19.7758L33.6187 21.1118V27.9245H37.8125V18.506L26.9958 14.0893C26.3656 14.0893 25.9531 13.8795 25.3344 13.8795C24.6104 13.8995 23.9036 14.0964 23.2802 14.4517C22.6569 14.8071 22.1375 15.3093 21.7708 15.9112L19.6854 19.1133C18.7723 20.6219 17.459 21.8691 15.8802 22.7268C14.3015 23.5845 12.5142 24.0218 10.7021 23.9937L10.7364 28.0128Z" stroke="#F8F8F8" stroke-width="2" stroke-linecap="round" stroke-linejoin="round"/>
</svg>
