<svg width="84" height="84" viewBox="0 0 84 84" fill="none" xmlns="http://www.w3.org/2000/svg">
<circle cx="42.1666" cy="41.5" r="41.5" fill="white"/>
<path d="M41.5 0.333008C18.5505 0.333008 0 18.8835 0 41.833C0 64.7825 18.5505 83.333 41.5 83.333C64.4495 83.333 83 64.7825 83 41.833C83 18.8835 64.4495 0.333008 41.5 0.333008ZM54.365 21.3735C54.946 21.3735 55.527 21.581 56.025 22.0375L61.2955 27.308C62.25 28.221 62.25 29.6735 61.2955 30.545L57.1455 34.695L48.638 26.1875L52.788 22.0375C53.203 21.581 53.784 21.3735 54.365 21.3735ZM46.1895 28.5945L54.7385 37.1435L29.5895 62.2925H21.0405V53.7435L46.1895 28.5945Z" fill="#CCCCCC"/>
</svg>
