<svg width="63" height="63" viewBox="0 0 63 63" fill="none" xmlns="http://www.w3.org/2000/svg">
<path d="M31.5 31.5C28.6125 31.5 26.1406 30.4719 24.0844 28.4156C22.0281 26.3594 21 23.8875 21 21C21 18.1125 22.0281 15.6406 24.0844 13.5844C26.1406 11.5281 28.6125 10.5 31.5 10.5C34.3875 10.5 36.8594 11.5281 38.9156 13.5844C40.9719 15.6406 42 18.1125 42 21C42 23.8875 40.9719 26.3594 38.9156 28.4156C36.8594 30.4719 34.3875 31.5 31.5 31.5ZM10.5 52.5V45.15C10.5 43.6625 10.8833 42.2949 11.6498 41.0471C12.4163 39.7994 13.433 38.8483 14.7 38.1938C17.4125 36.8375 20.1687 35.8199 22.9688 35.1409C25.7688 34.4619 28.6125 34.1232 31.5 34.125C34.3875 34.125 37.2313 34.4645 40.0312 35.1435C42.8312 35.8225 45.5875 36.8393 48.3 38.1938C49.5687 38.85 50.5864 39.802 51.3529 41.0497C52.1194 42.2975 52.5018 43.6643 52.5 45.15V52.5H10.5Z" fill="#F8F8F8"/>
</svg>