<svg width="21" height="24" viewBox="0 0 21 24" fill="none" xmlns="http://www.w3.org/2000/svg">
<path d="M20.4 24H0V21.7143C0 20.1988 0.67165 18.7453 1.86719 17.6737C3.06274 16.602 4.68424 16 6.375 16H14.025C15.7158 16 17.3373 16.602 18.5328 17.6737C19.7283 18.7453 20.4 20.1988 20.4 21.7143V24ZM10.2 13.7143C9.19539 13.7143 8.20061 13.5369 7.27247 13.1923C6.34433 12.8477 5.501 12.3426 4.79063 11.7059C4.08026 11.0691 3.51677 10.3132 3.13232 9.48126C2.74787 8.64931 2.55 7.75764 2.55 6.85714C2.55 5.95665 2.74787 5.06497 3.13232 4.23303C3.51677 3.40108 4.08026 2.64516 4.79063 2.00841C5.501 1.37167 6.34433 0.866573 7.27247 0.521969C8.20061 0.177365 9.19539 -1.34184e-08 10.2 0C12.2289 2.70997e-08 14.1747 0.722447 15.6094 2.00841C17.044 3.29437 17.85 5.03852 17.85 6.85714C17.85 8.67577 17.044 10.4199 15.6094 11.7059C14.1747 12.9918 12.2289 13.7143 10.2 13.7143Z" fill="white"/>
</svg>
