<svg width="60" height="60" viewBox="0 0 90 90" fill="none" xmlns="http://www.w3.org/2000/svg">
<g clip-path="url(#clip0_204_32)">
<path fill-rule="evenodd" clip-rule="evenodd" d="M0 45C0 33.0653 4.74106 21.6193 13.1802 13.1802C21.6193 4.74106 33.0653 0 45 0C56.9347 0 68.3807 4.74106 76.8198 13.1802C85.2589 21.6193 90 33.0653 90 45C90 56.9347 85.2589 68.3807 76.8198 76.8198C68.3807 85.2589 56.9347 90 45 90C33.0653 90 21.6193 85.2589 13.1802 76.8198C4.74106 68.3807 0 56.9347 0 45ZM60.876 65.124L45 49.242L29.124 65.124L24.876 60.882L40.758 45L24.876 29.124L29.124 24.876L45 40.758L60.876 24.876L65.124 29.124L49.242 45L65.124 60.876L60.882 65.124H60.876Z" fill="white"/>
</g>
<defs>
<clipPath id="clip0_204_32">
<rect width="90" height="90" fill="white"/>
</clipPath>
</defs>
</svg>