<svg width="307" height="268" viewBox="0 0 307 268" fill="none" xmlns="http://www.w3.org/2000/svg">
<rect x="111.708" y="104.958" width="179.167" height="102.125" fill="white"/>
<path d="M217.417 141.687V126.458C222.344 124.368 227.384 122.8 232.538 121.755C237.692 120.71 243.103 120.187 248.771 120.187C252.653 120.187 256.46 120.486 260.193 121.083C263.925 121.68 267.583 122.427 271.167 123.323V137.656C267.583 136.312 263.961 135.303 260.3 134.628C256.639 133.953 252.796 133.619 248.771 133.625C243.097 133.625 237.648 134.335 232.422 135.757C227.196 137.178 222.194 139.155 217.417 141.687ZM217.417 190.958V175.729C222.344 173.639 227.384 172.071 232.538 171.026C237.692 169.981 243.103 169.458 248.771 169.458C252.653 169.458 256.46 169.757 260.193 170.354C263.925 170.951 267.583 171.698 271.167 172.593V186.927C267.583 185.583 263.961 184.574 260.3 183.899C256.639 183.224 252.796 182.89 248.771 182.896C243.097 182.896 237.648 183.567 232.422 184.911C227.196 186.255 222.194 188.271 217.417 190.958ZM217.417 166.323V151.093C222.344 149.003 227.384 147.435 232.538 146.39C237.692 145.345 243.103 144.823 248.771 144.823C252.653 144.823 256.46 145.121 260.193 145.718C263.925 146.316 267.583 147.062 271.167 147.958V162.291C267.583 160.948 263.961 159.938 260.3 159.263C256.639 158.589 252.796 158.254 248.771 158.26C243.097 158.26 237.648 158.971 232.422 160.392C227.196 161.814 222.194 163.79 217.417 166.323ZM150.229 196.333C157.247 196.333 164.079 197.118 170.726 198.689C177.373 200.26 183.978 202.61 190.542 205.739V117.5C184.42 113.916 177.925 111.229 171.057 109.437C164.189 107.646 157.247 106.75 150.229 106.75C144.854 106.75 139.515 107.272 134.212 108.317C128.908 109.363 123.796 110.93 118.875 113.021V201.708C124.101 199.916 129.291 198.573 134.445 197.677C139.599 196.781 144.86 196.333 150.229 196.333ZM208.458 205.739C215.028 202.604 221.633 200.251 228.274 198.68C234.915 197.109 241.748 196.327 248.771 196.333C254.146 196.333 259.41 196.781 264.564 197.677C269.718 198.573 274.905 199.916 280.125 201.708V113.021C275.198 110.93 270.083 109.363 264.779 108.317C259.476 107.272 254.14 106.75 248.771 106.75C241.753 106.75 234.811 107.646 227.943 109.437C221.075 111.229 214.58 113.916 208.458 117.5V205.739ZM199.5 232.166C192.333 226.493 184.569 222.088 176.208 218.953C167.847 215.817 159.188 214.25 150.229 214.25C142.316 214.25 134.03 215.743 125.37 218.729C116.71 221.715 108.573 226.343 100.958 232.614V102.718C107.528 98.2393 115.256 94.8052 124.143 92.4163C133.029 90.0275 141.725 88.833 150.229 88.833C158.889 88.833 167.363 89.9528 175.653 92.1924C183.942 94.432 191.891 97.7913 199.5 102.271C207.115 97.7913 215.067 94.432 223.356 92.1924C231.645 89.9528 240.117 88.833 248.771 88.833C257.281 88.833 265.98 90.0275 274.866 92.4163C283.753 94.8052 291.478 98.2393 298.042 102.718V232.614C290.576 226.343 282.475 221.715 273.738 218.729C265 215.743 256.678 214.25 248.771 214.25C239.812 214.25 231.153 215.817 222.792 218.953C214.431 222.088 206.667 226.493 199.5 232.166Z" fill="black"/>
<ellipse cx="59.125" cy="157.667" rx="16.125" ry="17.9167" fill="white"/>
<path d="M62.7083 143.333C67.6354 143.333 71.6667 147.365 71.6667 152.292C71.6667 162.146 63.6042 170.208 53.75 170.208C52.2271 170.208 50.7937 170.029 49.2708 169.76C52.0479 164.833 53.75 158.921 53.75 152.292C53.75 147.365 57.7812 143.333 62.7083 143.333ZM167.252 26.875C164.923 26.875 162.683 27.7708 160.892 29.4729L80.625 109.74L105.26 134.375L185.527 54.1083C186.358 53.2796 187.016 52.2951 187.466 51.2114C187.915 50.1277 188.147 48.966 188.147 47.7927C188.147 46.6194 187.915 45.4577 187.466 44.374C187.016 43.2903 186.358 42.3059 185.527 41.4771L173.523 29.4729C171.731 27.6812 169.492 26.875 167.252 26.875ZM62.7083 125.417C47.8375 125.417 35.8333 137.421 35.8333 152.292C35.8333 164.027 25.4417 170.208 17.9167 170.208C26.1583 181.137 40.2229 188.125 53.75 188.125C73.5479 188.125 89.5833 172.09 89.5833 152.292C89.5833 137.421 77.5792 125.417 62.7083 125.417Z" fill="black"/>
</svg>
