<svg width="215" height="255" viewBox="0 0 215 255" fill="none" xmlns="http://www.w3.org/2000/svg">
<rect x="19.7083" y="91.958" width="179.167" height="102.125" fill="white"/>
<path d="M125.417 128.687V113.458C130.344 111.368 135.384 109.8 140.538 108.755C145.692 107.71 151.103 107.187 156.771 107.187C160.653 107.187 164.46 107.486 168.193 108.083C171.925 108.68 175.583 109.427 179.167 110.323V124.656C175.583 123.312 171.961 122.303 168.3 121.628C164.639 120.953 160.796 120.619 156.771 120.625C151.097 120.625 145.648 121.335 140.422 122.757C135.196 124.178 130.194 126.155 125.417 128.687ZM125.417 177.958V162.729C130.344 160.639 135.384 159.071 140.538 158.026C145.692 156.981 151.103 156.458 156.771 156.458C160.653 156.458 164.46 156.757 168.193 157.354C171.925 157.951 175.583 158.698 179.167 159.593V173.927C175.583 172.583 171.961 171.574 168.3 170.899C164.639 170.224 160.796 169.89 156.771 169.896C151.097 169.896 145.648 170.567 140.422 171.911C135.196 173.255 130.194 175.271 125.417 177.958ZM125.417 153.323V138.093C130.344 136.003 135.384 134.435 140.538 133.39C145.692 132.345 151.103 131.823 156.771 131.823C160.653 131.823 164.46 132.121 168.193 132.718C171.925 133.316 175.583 134.062 179.167 134.958V149.291C175.583 147.948 171.961 146.938 168.3 146.263C164.639 145.589 160.796 145.254 156.771 145.26C151.097 145.26 145.648 145.971 140.422 147.392C135.196 148.814 130.194 150.79 125.417 153.323ZM58.2292 183.333C65.2465 183.333 72.0788 184.118 78.7258 185.689C85.3729 187.26 91.9782 189.61 98.5417 192.739V104.5C92.4201 100.916 85.9254 98.2288 79.0573 96.4372C72.1892 94.6455 65.2465 93.7497 58.2292 93.7497C52.8542 93.7497 47.515 94.2722 42.2117 95.3174C36.9083 96.3625 31.7961 97.9302 26.875 100.021V188.708C32.1007 186.916 37.2906 185.573 42.4446 184.677C47.5986 183.781 52.8601 183.333 58.2292 183.333ZM116.458 192.739C123.028 189.604 129.633 187.251 136.274 185.68C142.915 184.109 149.748 183.327 156.771 183.333C162.146 183.333 167.41 183.781 172.564 184.677C177.718 185.573 182.905 186.916 188.125 188.708V100.021C183.198 97.9302 178.083 96.3625 172.779 95.3174C167.476 94.2722 162.14 93.7497 156.771 93.7497C149.753 93.7497 142.811 94.6455 135.943 96.4372C129.075 98.2288 122.58 100.916 116.458 104.5V192.739ZM107.5 219.166C100.333 213.493 92.5695 209.088 84.2083 205.953C75.8472 202.817 67.1875 201.25 58.2292 201.25C50.316 201.25 42.0295 202.743 33.3698 205.729C24.7101 208.715 16.5729 213.343 8.95834 219.614V89.7184C15.5278 85.2393 23.2558 81.8052 32.1425 79.4163C41.0292 77.0275 49.7247 75.833 58.2292 75.833C66.8889 75.833 75.3635 76.9528 83.6529 79.1924C91.9424 81.432 99.8914 84.7913 107.5 89.2705C115.115 84.7913 123.067 81.432 131.356 79.1924C139.645 76.9528 148.117 75.833 156.771 75.833C165.281 75.833 173.98 77.0275 182.866 79.4163C191.753 81.8052 199.478 85.2393 206.042 89.7184V219.614C198.576 213.343 190.475 208.715 181.738 205.729C173 202.743 164.678 201.25 156.771 201.25C147.812 201.25 139.153 202.817 130.792 205.953C122.431 209.088 114.667 213.493 107.5 219.166Z" fill="black"/>
<ellipse cx="59.125" cy="157.667" rx="16.125" ry="17.9167" fill="white"/>
<path d="M62.7083 143.333C67.6354 143.333 71.6667 147.365 71.6667 152.292C71.6667 162.146 63.6042 170.208 53.75 170.208C52.2271 170.208 50.7937 170.029 49.2708 169.76C52.0479 164.833 53.75 158.921 53.75 152.292C53.75 147.365 57.7812 143.333 62.7083 143.333ZM167.252 26.875C164.923 26.875 162.683 27.7708 160.892 29.4729L80.625 109.74L105.26 134.375L185.527 54.1083C186.358 53.2796 187.016 52.2951 187.466 51.2114C187.915 50.1277 188.147 48.966 188.147 47.7927C188.147 46.6194 187.915 45.4577 187.466 44.374C187.016 43.2903 186.358 42.3059 185.527 41.4771L173.523 29.4729C171.731 27.6812 169.492 26.875 167.252 26.875ZM62.7083 125.417C47.8375 125.417 35.8333 137.421 35.8333 152.292C35.8333 164.027 25.4417 170.208 17.9167 170.208C26.1583 181.137 40.2229 188.125 53.75 188.125C73.5479 188.125 89.5833 172.09 89.5833 152.292C89.5833 137.421 77.5792 125.417 62.7083 125.417Z" fill="black"/>
</svg>
