<svg width="234" height="250" viewBox="0 0 234 250" fill="none" xmlns="http://www.w3.org/2000/svg">
<rect x="99.6455" y="25.3711" width="118.447" height="63.3961" transform="rotate(27.2738 99.6455 25.3711)" fill="white"/>
<path d="M91.5717 96.5258L58.8352 106.135C55.3281 106.966 51.4339 106.661 48.0387 104.784C44.7558 102.97 42.3281 99.9254 41.2898 96.3209C40.2514 92.7164 40.6875 88.8471 42.502 85.5642L43.4794 83.7958L79.4053 35.504C84.5141 27.945 92.2644 22.5692 101.134 20.4323C110.004 18.2953 119.352 19.5517 127.343 23.9547L191.003 59.1406C207.696 68.3672 214.271 88.7154 206.726 105.876L184.947 161.987L183.969 163.755C182.155 167.038 179.11 169.466 175.506 170.504C171.901 171.542 168.032 171.106 164.749 169.292C161.354 167.415 159.024 164.28 157.862 160.868L148.583 128.037L91.5717 96.5258ZM115.987 36.1466L108.168 50.2934L94.0212 42.4743L90.1116 49.5476L104.258 57.3667L96.4392 71.5134L103.513 75.423L111.332 61.2763L125.478 69.0954L129.388 62.022L115.241 54.2029L123.06 40.0562L115.987 36.1466ZM183.184 73.2874C181.777 72.5097 180.119 72.3228 178.574 72.7678C177.029 73.2128 175.724 74.2532 174.947 75.6602C174.169 77.0672 173.982 78.7255 174.427 80.2703C174.872 81.815 175.913 83.1198 177.32 83.8974C178.727 84.6751 180.385 84.862 181.93 84.417C183.474 83.972 184.779 82.9315 185.557 81.5246C186.334 80.1176 186.521 78.4593 186.076 76.9145C185.631 75.3698 184.591 74.065 183.184 73.2874ZM163.964 78.824C162.557 78.0464 160.899 77.8595 159.354 78.3045C157.809 78.7495 156.504 79.7899 155.727 81.1969C154.949 82.6039 154.762 84.2622 155.207 85.8069C155.652 87.3517 156.693 88.6564 158.1 89.4341C159.506 90.2117 161.165 90.3986 162.71 89.9536C164.254 89.5086 165.559 88.4682 166.337 87.0612C167.114 85.6542 167.301 83.996 166.856 82.4512C166.411 80.9064 165.371 79.6017 163.964 78.824ZM188.721 92.5075C187.314 91.7298 185.655 91.5429 184.111 91.9879C182.566 92.4329 181.261 93.4734 180.483 94.8803C179.706 96.2873 179.519 97.9456 179.964 99.4904C180.409 101.035 181.449 102.34 182.856 103.118C184.263 103.895 185.922 104.082 187.466 103.637C189.011 103.192 190.316 102.152 191.093 100.745C191.871 99.3377 192.058 97.6794 191.613 96.1346C191.168 94.5899 190.128 93.2851 188.721 92.5075ZM169.501 98.0441C168.094 97.2665 166.435 97.0796 164.89 97.5246C163.346 97.9696 162.041 99.01 161.263 100.417C160.486 101.824 160.299 103.482 160.744 105.027C161.189 106.572 162.229 107.877 163.636 108.654C165.043 109.432 166.701 109.619 168.246 109.174C169.791 108.729 171.096 107.688 171.873 106.281C172.651 104.874 172.838 103.216 172.393 101.671C171.948 100.127 170.907 98.8218 169.501 98.0441Z" fill="black"/>
<ellipse cx="94.5" cy="92" rx="10.5" ry="6" fill="white"/>
<ellipse cx="84.5" cy="118" rx="42.5" ry="26" fill="white"/>
<rect x="48" y="124" width="69" height="88" fill="white"/>
<mask id="mask0_143_54" style="mask-type:luminance" maskUnits="userSpaceOnUse" x="20" y="79" width="123" height="142">
<path d="M120.188 203.487L137.135 122.77L25.5217 124.928L45.5749 204.93C46.8376 209.961 47.4654 212.478 49.4089 213.922C51.3489 215.367 54.0311 215.315 59.399 215.211L106.768 214.296C112.136 214.192 114.818 214.14 116.701 212.622C118.587 211.103 119.118 208.567 120.188 203.487Z" fill="white" stroke="white" stroke-width="10" stroke-linecap="round" stroke-linejoin="round"/>
<path d="M97.0371 214.483L98.7678 123.511M69.1338 215.022L63.8887 124.186" stroke="black" stroke-width="10" stroke-linecap="round" stroke-linejoin="round"/>
<path d="M110.989 214.213L55.1821 215.292M109.232 123.309L53.425 124.388M39.4733 124.657C39.4733 124.657 35.7902 114.624 40.9244 109.473C46.0587 104.321 56.555 105.803 56.555 105.803C56.555 105.803 56.3597 95.7021 63.2705 92.2004C70.1812 88.6987 80.7425 93.5467 80.7425 93.5467C80.7425 93.5467 87.4999 82.1094 98.0194 84.7925C108.539 87.4756 108.776 99.741 108.776 99.741C108.776 99.741 117.496 99.5724 122.858 106.205C128.22 112.837 123.183 123.039 123.183 123.039" stroke="white" stroke-width="10" stroke-linecap="round" stroke-linejoin="round"/>
</mask>
<g mask="url(#mask0_143_54)">
<path d="M0 68.1631L167.42 64.9269L170.543 226.535L3.12382 229.771L0 68.1631Z" fill="black"/>
</g>
<rect x="120.847" y="150.999" width="92.5657" height="20.9013" transform="rotate(-11.0782 120.847 150.999)" fill="white"/>
<path d="M213.277 132.436L192.103 136.638L206.866 155.711L217.48 153.556L213.277 132.436ZM176.262 139.763L165.648 141.864L180.465 160.884L191.025 158.783L176.262 139.763ZM149.861 144.936L139.247 147.145L154.064 166.164L164.624 164.063L149.861 144.936ZM123.407 150.323L118.126 151.347C115.327 151.907 112.864 153.554 111.278 155.928C109.692 158.302 109.112 161.208 109.667 164.009L111.769 174.569L138.17 169.343L123.407 150.323ZM111.769 174.569V228.448C111.769 231.306 112.904 234.047 114.925 236.068C116.946 238.089 119.687 239.224 122.545 239.224H208.751C214.732 239.224 219.527 234.429 219.527 228.448V174.569H111.769Z" fill="black"/>
</svg>
