<svg width="200" height="200" viewBox="0 0 200 200" fill="none" xmlns="http://www.w3.org/2000/svg">
<circle cx="100" cy="95.9994" r="93.3333" fill="white"/>
<path d="M170.465 29.5354C161.228 20.207 150.238 12.7956 138.128 7.72706C126.018 2.65848 113.026 0.0326128 99.8984 0.000301863C86.7705 -0.0320091 73.7656 2.52988 61.6309 7.53878C49.4961 12.5477 38.4706 19.9049 29.1877 29.1877C19.9049 38.4706 12.5477 49.4961 7.53878 61.6309C2.52988 73.7656 -0.0320091 86.7705 0.000301863 99.8984C0.0326128 113.026 2.65849 126.018 7.72706 138.128C12.7956 150.238 20.207 161.228 29.5354 170.465C38.7725 179.793 49.7616 187.204 61.8716 192.273C73.9816 197.342 86.9737 199.967 100.102 200C113.229 200.032 126.234 197.47 138.369 192.461C150.504 187.452 161.529 180.095 170.812 170.812C180.095 161.529 187.452 150.504 192.461 138.369C197.47 126.234 200.032 113.229 200 100.102C199.967 86.9737 197.342 73.9816 192.273 61.8716C187.204 49.7616 179.793 38.7725 170.465 29.5354ZM14.583 100C14.5798 92.4402 15.5822 84.9136 17.5637 77.6181C20.8291 84.6472 25.5716 90.7198 28.7969 97.9313C32.9655 107.203 44.1586 104.631 49.1013 112.755C53.4878 119.966 48.8032 129.086 52.0864 136.631C54.471 142.108 60.0943 143.305 63.9736 147.309C67.9375 151.348 67.853 156.882 68.458 162.15C69.1407 168.339 70.2481 174.473 71.7724 180.51C71.7724 180.554 71.7724 180.603 71.808 180.648C38.5176 168.956 14.583 137.223 14.583 100ZM100 185.417C95.2297 185.415 90.4679 185.017 85.7638 184.225C85.8128 183.019 85.835 181.894 85.9551 181.111C87.0362 174.037 90.5774 167.119 95.3554 161.825C100.076 156.602 106.544 153.07 110.53 147.144C114.436 141.361 115.606 133.575 113.996 126.817C111.625 116.834 98.0603 113.502 90.7465 108.088C86.5424 104.974 82.8009 100.16 77.28 99.7687C74.7353 99.5907 72.6043 100.138 70.0818 99.4884C67.7684 98.8878 65.9533 97.6421 63.4887 97.9669C58.8842 98.5719 55.9791 103.492 51.032 102.825C46.3386 102.198 41.5027 96.7034 40.435 92.2324C39.0648 86.4845 43.6115 84.6205 48.4829 84.1089C50.516 83.8953 52.7982 83.664 54.7512 84.4114C57.3227 85.3634 58.5372 87.8815 60.8461 89.1538C65.1748 91.5295 66.0512 87.7346 65.3883 83.8909C64.3962 78.1341 63.2396 75.7896 68.3735 71.8257C71.9325 69.0942 74.9755 67.1189 74.4061 62.2119C74.0679 59.3291 72.4886 58.0256 73.9612 55.1561C75.0778 52.9717 78.143 51.0009 80.1406 49.6974C85.2967 46.3341 102.229 46.5833 95.311 37.1696C93.2779 34.4069 89.5275 29.4687 85.9685 28.7925C81.5197 27.9517 79.5444 32.9165 76.4436 35.1053C73.2405 37.3698 67.0032 39.9412 63.7957 36.44C59.4803 31.7287 66.6562 30.185 68.2445 26.8929C68.9785 25.358 68.2445 23.227 67.0077 21.2206C68.6122 20.5444 70.2435 19.9171 71.9014 19.3388C72.9404 20.1062 74.173 20.5684 75.4604 20.6734C78.4367 20.8692 81.2439 19.2587 83.8419 21.2874C86.7248 23.5118 88.8024 26.3234 92.6283 27.0174C96.3297 27.6892 100.249 25.5315 101.166 21.7411C101.722 19.4367 101.166 17.0032 100.632 14.6231C117.27 14.7188 133.514 19.7017 147.344 28.9527C146.454 28.6145 145.391 28.6546 144.079 29.2641C141.378 30.5186 137.552 33.7129 137.236 36.8804C136.876 40.475 142.179 40.9822 144.697 40.9822C148.479 40.9822 152.309 39.2917 151.09 34.9229C150.561 33.0278 149.84 31.0569 148.679 29.8647C151.47 31.8015 154.144 33.902 156.687 36.1553C156.647 36.1953 156.607 36.2309 156.566 36.2754C154.004 38.9447 151.028 41.0578 149.275 44.3055C148.038 46.5921 146.646 47.6777 144.141 48.2693C142.762 48.5941 141.187 48.7142 140.03 49.6396C136.809 52.1754 138.642 58.2702 141.694 60.0987C145.551 62.4076 151.272 61.3221 154.182 58.0256C156.455 55.4453 157.794 50.9653 161.883 50.9698C163.683 50.966 165.412 51.6708 166.696 52.9317C168.387 54.6845 168.053 56.3217 168.414 58.5105C169.05 62.3987 172.48 60.29 174.566 58.3281C176.087 61.0348 177.46 63.8224 178.677 66.6785C176.381 69.9839 174.557 73.5875 169.036 69.7348C165.731 67.4259 163.698 64.0759 159.547 63.0349C155.921 62.1451 152.207 63.0705 148.625 63.6889C144.555 64.3962 139.728 64.7077 136.64 67.7907C133.655 70.7625 132.076 74.7397 128.899 77.7249C122.756 83.5083 120.162 89.8211 124.139 97.998C127.965 105.859 135.969 110.125 144.604 109.565C153.088 109 161.901 104.08 161.656 116.407C161.567 120.771 162.479 123.792 163.818 127.845C165.059 131.582 164.975 135.203 165.259 139.06C165.53 143.577 166.236 148.057 167.368 152.438C159.394 162.705 149.179 171.013 137.503 176.729C125.827 182.445 113 185.416 100 185.417Z" fill="black"/>
</svg>
