<svg width="226" height="267" viewBox="0 0 226 267" fill="none" xmlns="http://www.w3.org/2000/svg">
<path d="M225.169 154.401L195.975 232.453C193.807 238.249 189.425 242.947 183.794 245.512C178.162 248.078 171.742 248.301 165.946 246.133C160.15 243.965 155.452 239.583 152.887 233.952C150.321 228.32 150.098 221.9 152.266 216.104C154.434 210.308 158.815 205.61 164.447 203.045C170.078 200.479 176.498 200.256 182.295 202.424C185.666 203.685 188.571 205.625 190.867 208.05L204.576 171.397L137.16 161.342L116.374 216.915C114.206 222.711 109.824 227.408 104.192 229.974C98.5609 232.54 92.1409 232.763 86.3447 230.595C80.5485 228.427 75.8509 224.045 73.2854 218.414C70.7198 212.782 70.4965 206.362 72.6644 200.566C74.8324 194.77 79.2141 190.072 84.8457 187.507C90.4772 184.941 96.8972 184.718 102.693 186.886C106.065 188.147 108.97 190.087 111.266 192.512L130.744 140.436L225.169 154.401Z" fill="black"/>
<ellipse cx="81" cy="120.525" rx="28" ry="30.5" fill="white"/>
<ellipse cx="54.5" cy="114.525" rx="21.5" ry="38.5" fill="white"/>
<ellipse cx="61" cy="30.0254" rx="8" ry="10" fill="white"/>
<path d="M71.7737 85.1356L65.1476 58.0947L77.9609 36.8553C82.6461 29.2373 81.4196 19.2186 75.2378 12.7073C72.8684 10.1718 69.8691 8.30988 66.5455 7.31148C63.222 6.31307 59.6931 6.21385 56.3188 7.02393C54.6963 7.4215 52.8989 8.10764 51.5445 8.9309C43.7495 13.216 40.0027 22.324 42.123 30.9771L48.2569 56.0093L29.9986 86.4452C25.2757 94.4134 22.9964 103.593 23.4436 112.845C23.8908 122.097 27.0448 131.014 32.5142 138.49C42.0602 151.711 57.5199 158.652 73.152 157.606L74.3068 162.319C74.7991 164.327 73.4764 166.617 71.3904 167.128L59.8015 169.968L63.5878 185.42L75.1768 182.58C85.6068 180.024 92.3903 169.272 89.7588 158.532L88.8122 154.669C104.496 150.826 117.317 131.96 111.96 110.095C107.605 92.3257 89.0799 80.8949 71.7737 85.1356ZM57.575 27.1908C57.1396 25.4138 57.6486 23.8149 59.1575 22.9538C60.7436 22.0737 62.691 22.3336 63.9195 23.6706C64.5384 24.3055 64.9273 25.1291 65.0246 26.0104C65.1218 26.8917 64.9218 27.7803 64.4562 28.5349L59.9036 36.6937L57.575 27.1908ZM57.2683 92.7849C50.9858 99.5659 47.4283 109.447 47.3506 117.819L63.4779 118.126L69.2521 141.69C64.5317 141.588 59.8985 140.398 55.7127 138.214C51.527 136.029 47.9014 132.909 45.1178 129.095C37.7954 118.932 37.1251 105.501 43.5033 94.7656L53.482 77.333L57.2683 92.7849ZM85.0259 139.217L75.4465 100.124C84.4859 97.909 94.3716 104.495 96.6623 113.844C99.9753 127.364 92.0565 137.495 85.0259 139.217Z" fill="black"/>
</svg>
