<svg width="230" height="230" viewBox="0 0 230 230" fill="none" xmlns="http://www.w3.org/2000/svg">
<rect x="92" y="44" width="47" height="108" fill="white"/>
<rect x="70" y="124" width="87" height="28" fill="white"/>
<path fill-rule="evenodd" clip-rule="evenodd" d="M30.7721 188.792C34.3658 197.1 40.4512 201.25 49.0667 201.25H180.933C189.539 201.25 195.644 197.1 199.228 188.792C202.812 180.483 201.633 172.922 195.682 166.108L148.206 105.417V47.9167H164.191C165.422 47.9531 166.647 47.7305 167.786 47.2633C168.925 46.7961 169.953 46.0947 170.804 45.2046C171.674 44.2904 172.354 43.2119 172.803 42.0322C173.252 40.8524 173.462 39.5951 173.42 38.3334C173.462 37.0717 173.252 35.8143 172.803 34.6346C172.354 33.4549 171.674 32.3764 170.804 31.4621C169.953 30.5721 168.925 29.8707 167.786 29.4035C166.647 28.9363 165.422 28.7137 164.191 28.7501H65.8087C64.578 28.7131 63.3532 28.9354 62.214 29.4027C61.0748 29.8699 60.0466 30.5716 59.1962 31.4621C58.3275 32.3772 57.6496 33.456 57.2021 34.6357C56.7546 35.8154 56.5464 37.0724 56.5896 38.3334C56.5896 41.103 57.4617 43.3934 59.2058 45.2046C60.0562 46.0952 61.0844 46.7969 62.2236 47.2641C63.3628 47.7313 64.5876 47.9537 65.8183 47.9167H81.8033V105.417L34.3083 166.108C28.3667 172.922 27.1879 180.483 30.7721 188.792ZM73.485 146.405H156.515L129.758 112.441V47.9167H100.242V112.441L73.485 146.405Z" fill="black"/>
</svg>
