<svg width="175" height="201" viewBox="0 0 175 201" fill="none" xmlns="http://www.w3.org/2000/svg">
<ellipse cx="105.875" cy="70" rx="40.1046" ry="57.9106" transform="rotate(41.1224 105.875 70)" fill="white"/>
<path d="M12.4688 173.839L0 161.589L35.875 125.714C40.3958 121.194 43.4963 115.541 45.1763 108.757C46.8563 101.973 47.6933 91.5835 47.6875 77.5893C47.6875 69.131 49.5833 60.8185 53.375 52.6518C57.1667 44.4852 62.5625 36.9018 69.5625 29.9018C82.8333 16.631 97.4896 9.12059 113.531 7.37059C129.573 5.62059 142.771 10.0685 153.125 20.7143C163.625 31.2143 168 44.4852 166.25 60.5268C164.5 76.5685 157.062 91.1518 143.938 104.277C136.938 111.277 129.354 116.673 121.188 120.464C113.021 124.256 104.708 126.152 96.25 126.152C82.1042 126.152 71.75 126.954 65.1875 128.558C58.625 130.162 53.0104 133.298 48.3438 137.964L12.4688 173.839ZM72.625 100.777C79.4792 107.485 88.7396 109.964 100.406 108.214C112.073 106.464 122.5 100.996 131.688 91.8081C141.021 82.4748 146.6 72.0098 148.426 60.4131C150.252 48.8164 147.735 39.7398 140.875 33.1831C133.875 26.1831 124.722 23.5581 113.417 25.3081C102.112 27.0581 91.7233 32.5998 82.25 41.9331C73.0625 51.1206 67.4829 61.5127 65.5113 73.1093C63.5396 84.706 65.9108 93.9285 72.625 100.777ZM140 200.089C130.375 200.089 122.135 196.662 115.281 189.808C108.427 182.954 105 174.714 105 165.089C105 155.464 108.427 147.225 115.281 140.371C122.135 133.516 130.375 130.089 140 130.089C149.625 130.089 157.865 133.516 164.719 140.371C171.573 147.225 175 155.464 175 165.089C175 174.714 171.573 182.954 164.719 189.808C157.865 196.662 149.625 200.089 140 200.089Z" fill="black"/>
</svg>
