<svg width="330" height="209" viewBox="0 0 330 209" fill="none" xmlns="http://www.w3.org/2000/svg">
<ellipse cx="260.875" cy="70" rx="40.1046" ry="57.9106" transform="rotate(41.1224 260.875 70)" fill="white"/>
<path d="M167.469 173.839L155 161.589L190.875 125.714C195.396 121.194 198.496 115.541 200.176 108.757C201.856 101.973 202.693 91.5835 202.688 77.5893C202.688 69.131 204.583 60.8185 208.375 52.6518C212.167 44.4852 217.562 36.9018 224.562 29.9018C237.833 16.631 252.49 9.12059 268.531 7.37059C284.573 5.62059 297.771 10.0685 308.125 20.7143C318.625 31.2143 323 44.4852 321.25 60.5268C319.5 76.5685 312.062 91.1518 298.938 104.277C291.938 111.277 284.354 116.673 276.188 120.464C268.021 124.256 259.708 126.152 251.25 126.152C237.104 126.152 226.75 126.954 220.188 128.558C213.625 130.162 208.01 133.298 203.344 137.964L167.469 173.839ZM227.625 100.777C234.479 107.485 243.74 109.964 255.406 108.214C267.073 106.464 277.5 100.996 286.688 91.8081C296.021 82.4748 301.6 72.0098 303.426 60.4131C305.252 48.8164 302.735 39.7398 295.875 33.1831C288.875 26.1831 279.722 23.5581 268.417 25.3081C257.112 27.0581 246.723 32.5998 237.25 41.9331C228.062 51.1206 222.483 61.5127 220.511 73.1093C218.54 84.706 220.911 93.9285 227.625 100.777ZM295 200.089C285.375 200.089 277.135 196.662 270.281 189.808C263.427 182.954 260 174.714 260 165.089C260 155.464 263.427 147.225 270.281 140.371C277.135 133.516 285.375 130.089 295 130.089C304.625 130.089 312.865 133.516 319.719 140.371C326.573 147.225 330 155.464 330 165.089C330 174.714 326.573 182.954 319.719 189.808C312.865 196.662 304.625 200.089 295 200.089Z" fill="black"/>
<circle cx="75" cy="134" r="75" fill="white"/>
<path d="M0 126.274C0.628141 119.867 1.94724 113.807 3.95729 108.093C5.96734 102.379 8.73116 97.0075 12.2487 91.9774C16.6457 96.5 20.3216 101.746 23.2764 107.716C26.2312 113.686 28.1457 119.872 29.0201 126.274H0ZM120.98 126.274C121.859 119.867 123.744 113.711 126.633 107.807C129.523 101.902 133.229 96.6884 137.751 92.1658C141.269 97.0653 144.033 102.405 146.043 108.183C148.053 113.962 149.372 119.992 150 126.274H120.98ZM12.2487 175.834C8.73116 170.935 5.96734 165.626 3.95729 159.907C1.94724 154.188 0.628141 148.128 0 141.726H29.0201C28.1407 148.133 26.2236 154.289 23.2688 160.193C20.3141 166.098 16.6432 171.312 12.2563 175.834H12.2487ZM137.751 175.834C133.229 171.312 129.523 166.098 126.633 160.193C123.744 154.289 121.859 148.133 120.98 141.726H150C149.372 148.008 148.053 154.038 146.043 159.817C144.033 165.595 141.269 170.935 137.751 175.834ZM44.2839 126.274C43.2789 117.229 40.8291 108.874 36.9347 101.211C33.0402 93.5477 27.9523 86.6382 21.6709 80.4824C27.701 74.4523 34.5804 69.6156 42.309 65.9724C50.0377 62.3291 58.3593 60.005 67.2739 59V126.274H44.2839ZM82.7261 126.274V59C91.6457 60.005 99.9698 62.3291 107.698 65.9724C115.427 69.6156 122.304 74.4523 128.329 80.4824C121.922 86.5126 116.801 93.392 112.967 101.121C109.133 108.849 106.716 117.234 105.716 126.274H82.7261ZM67.2739 209C58.2286 207.995 49.8744 205.641 42.2111 201.937C34.5477 198.234 27.701 193.364 21.6709 187.329C28.0779 181.299 33.1985 174.452 37.0327 166.789C40.8668 159.126 43.2839 150.771 44.2839 141.726H67.2739V209ZM82.7261 209V141.726H105.716C106.721 150.771 109.141 159.158 112.975 166.887C116.809 174.616 121.927 181.492 128.329 187.518C122.299 193.548 115.42 198.384 107.691 202.028C99.9623 205.671 91.6407 207.995 82.7261 209Z" fill="black"/>
</svg>
